<?xml version="1.0" standalone="no"?>
<!DOCTYPE svg PUBLIC "-//W3C//DTD SVG 20010904//EN"
 "http://www.w3.org/TR/2001/REC-SVG-20010904/DTD/svg10.dtd">
<svg version="1.0" xmlns="http://www.w3.org/2000/svg"
 width="400.000000pt" height="400.000000pt" viewBox="0 0 400.000000 400.000000"
 preserveAspectRatio="xMidYMid meet">
<metadata>
Created by potrace 1.14, written by Peter Selinger 2001-2017
</metadata>
<g transform="translate(0.000000,400.000000) scale(0.100000,-0.100000)"
fill="#000000" stroke="none">
<path d="M1260 2642 c-530 -263 -728 -365 -737 -382 -6 -13 -8 -32 -4 -44 5
-16 190 -112 731 -383 399 -198 736 -361 750 -361 40 0 1473 719 1481 743 17
51 17 51 -728 420 -395 196 -729 358 -743 361 -19 4 -208 -86 -750 -354z"/>
<path d="M655 1871 c-132 -68 -150 -85 -134 -128 12 -32 1427 -736 1479 -736
52 0 1467 704 1479 736 16 43 -2 60 -134 128 l-128 66 -583 -288 c-534 -265
-587 -289 -634 -289 -47 0 -100 24 -634 289 l-583 288 -128 -66z"/>
</g>
</svg>
